# Blender v2.67 (sub 0) OBJ File: ''
# www.blender.org
mtllib box2.mtl
g Plane
v 14.080001 -4.000000 14.080001
v -14.080001 -4.000000 14.080001
v 14.080001 -4.000000 -14.080001
v -14.080001 -4.000000 -14.080001
vt 0.030952 0.971935
vt 0.028065 0.030952
vt 0.969048 0.028065
vt 0.971935 0.969048
vn 0.000000 1.000000 -0.000000
usemtl plane
s off
f 2/1/1 1/2/1 3/3/1
f 4/4/1 2/1/1 3/3/1
g Cube
v 1.000000 -1.000000 -1.000000
v 1.000000 -1.000000 1.000000
v -1.000000 -1.000000 1.000000
v -1.000000 -1.000000 -1.000000
v 1.000000 1.000000 -0.999999
v 0.999999 1.000000 1.000001
v -1.000000 1.000000 1.000000
v -1.000000 1.000000 -1.000000
vt 0.621938 0.261166
vt 0.621938 0.500000
vt 0.383104 0.500000
vt 0.621937 0.977667
vt 0.383103 0.977667
vt 0.383104 0.738833
vt 0.621938 0.022333
vt 0.860772 0.022333
vt 0.621937 0.738834
vt 0.144271 0.261166
vt 0.144271 0.022333
vt 0.383105 0.261166
vt 0.860771 0.261166
vt 0.383105 0.022333
vn 0.000000 -1.000000 0.000000
vn 1.000000 -0.000000 0.000001
vn -0.000000 -0.000000 1.000000
vn -1.000000 -0.000000 -0.000000
vn 0.000000 0.000000 -1.000000
vn 1.000000 0.000000 -0.000000
usemtl box
s off
f 5/5/2 6/6/2 7/7/2
f 9/8/1 12/9/1 11/10/1
f 5/5/3 9/11/3 10/12/3
f 6/6/4 10/13/4 7/7/4
f 7/14/5 11/15/5 8/16/5
f 9/11/6 5/5/6 8/16/6
f 8/16/2 5/5/2 7/7/2
f 10/13/1 9/8/1 11/10/1
f 6/17/7 5/5/7 10/12/7
f 10/13/4 11/10/4 7/7/4
f 11/15/5 12/18/5 8/16/5
f 12/18/6 9/11/6 8/16/6
